# xmcd
# 
# Track frame offsets:
#     150
#     18976
#     47048
#     75098
#     95050
#     116717
#     142590
#     167680
#     186433
#     209986
#     233473
# 
# Disc length: 3416
# 
# Revision: 2
# Processed by: cddbd v1.5.2PL0 Copyright (c) Steve Scherf et al.
# Submitted via: BonkEnc v1.0.8
# 
DISCID=8a0d560b
DTITLE=fripSide - split tears
DYEAR=2008
DGENRE=Game
TTITLE0=Before Dawn Daybreak
TTITLE1=Split Tears
TTITLE2=Praying Over (Album Version)
TTITLE3=Magicaride
TTITLE4=Fictional Moon (Album Version)
TTITLE5=Snow Blind (Album Version)
TTITLE6=Snow Blind -After-
TTITLE7=Spiral Of Despair
TTITLE8=Escape -Version2008-
TTITLE9=Tomorrow
TTITLE10=Eternal Twinkle
EXTD=
EXTT0=
EXTT1=
EXTT2=
EXTT3=
EXTT4=
EXTT5=
EXTT6=
EXTT7=
EXTT8=
EXTT9=
EXTT10=
PLAYORDER=
